<?xml version="1.0" encoding="UTF-8"?>
<svg width="1024px" height="1024px" viewBox="0 0 1024 1024" version="1.1" xmlns="http://www.w3.org/2000/svg" xmlns:xlink="http://www.w3.org/1999/xlink">
    <!-- Generator: Sketch 50.2 (55047) - http://www.bohemiancoding.com/sketch -->
    <title>Artboard</title>
    <desc>Created with Sketch.</desc>
    <defs>
        <polyline id="path-1" points="5.68434189e-13 0.622532898 645.025962 0.622532898 645.025962 497.854348 5.68434189e-13 497.854348"></polyline>
        <polygon id="path-3" points="5.1159077e-13 0.622532898 645.025962 0.622532898 645.025962 497.854348 5.1159077e-13 497.854348"></polygon>
        <polyline id="path-5" points="5.68434189e-13 0.622532898 645.025962 0.622532898 645.025962 497.854348 5.68434189e-13 497.854348"></polyline>
        <polyline id="path-7" points="4.54747351e-13 0.622532898 645.025962 0.622532898 645.025962 497.854348 4.54747351e-13 497.854348"></polyline>
        <polyline id="path-9" points="1.08002496e-12 0.622532898 645.025962 0.622532898 645.025962 497.854348 1.08002496e-12 497.854348"></polyline>
        <polygon id="path-11" points="4.29167812e-12 0.622532898 645.025962 0.622532898 645.025962 497.854348 4.29167812e-12 497.854348"></polygon>
    </defs>
    <g id="Artboard" stroke="none" stroke-width="1" fill="none" fill-rule="evenodd">
        <g id="logo_jumbo" transform="translate(80.000000, 80.000000)">
            <circle id="Oval-1" fill="#FFFFFF" cx="431.534334" cy="431.534334" r="431.534334"></circle>
            <g id="Group" transform="translate(109.019200, 174.430720)">
                <g id="Page-1" transform="translate(0.000000, -0.000000)">
                    <path d="M64.3738485,337.504491 C64.3738485,335.668707 63.9389483,334.032408 63.0820656,332.641167 C62.2536021,331.298078 61.0849692,330.644591 59.5081329,330.644591 L4.86571564,330.644591 C3.28974049,330.644591 2.12024635,331.298078 1.2926441,332.641167 C0.434900247,334.033268 3.36086714e-12,335.668707 3.36086714e-12,337.504491 C3.36086714e-12,339.505366 0.453846397,341.201855 1.34862136,342.544084 C2.21842186,343.853638 3.36896984,344.489069 4.86571564,344.489069 L24.2855188,344.489069 L24.2855188,419.183558 C24.2855188,420.675402 25.0183903,421.825024 26.5263315,422.702073 C28.0842217,423.608357 30.0107006,424.068378 32.2515134,424.068378 C34.4070685,424.068378 36.3137401,423.607497 37.9172733,422.699494 C39.4648292,421.822444 40.217508,420.672822 40.217508,419.183558 L40.217508,344.489069 L59.5081329,344.489069 C61.0014339,344.489069 62.1511207,343.833862 63.0217824,342.486474 C63.9191409,341.096953 64.3738485,339.420241 64.3738485,337.504491" id="Fill-1" fill="#92BF20"></path>
                    <path d="M95.5061612,419.209784 L95.5061612,335.374207 C95.5061612,333.815295 94.7784568,332.672552 93.281711,331.884928 C91.7117642,331.062049 89.7801181,330.645021 87.5401666,330.645021 C85.2976314,330.645021 83.3659854,331.062049 81.7986221,331.884928 C80.3018763,332.671692 79.5741719,333.813576 79.5741719,335.374207 L79.5741719,419.209784 C79.5741719,420.693889 80.3070434,421.837492 81.8132623,422.706802 C83.3728749,423.610507 85.2993538,424.067948 87.5401666,424.067948 C89.6957216,424.067948 91.601532,423.609647 93.2059264,422.704223 C94.7534823,421.834052 95.5061612,420.691309 95.5061612,419.209784" id="Fill-3" fill="#92BF20"></path>
                    <path d="M174.821718,417.275117 C174.821718,415.307775 174.367011,413.606988 173.469652,412.220906 C172.597268,410.878677 171.448442,410.22519 169.956003,410.22519 L132.967952,410.22519 L132.967952,383.439938 L153.033646,383.439938 C154.619095,383.439938 155.791172,382.84836 156.617052,381.629949 C157.467907,380.376285 157.899362,378.960109 157.899362,377.420973 C157.899362,375.716747 157.448099,374.216305 156.55763,372.96264 C155.686968,371.739071 154.533837,371.144913 153.033646,371.144913 L132.967952,371.144913 L132.967952,344.489499 L169.956003,344.489499 C171.449304,344.489499 172.59899,343.836011 173.469652,342.492922 C174.367011,341.108561 174.821718,339.407773 174.821718,337.437852 C174.821718,335.637322 174.386818,334.02166 173.529935,332.633859 C172.701472,331.295929 171.531978,330.645021 169.956003,330.645021 L123.968531,330.645021 C122.081667,330.645021 120.422156,331.099023 119.034781,331.994989 C117.689605,332.865159 117.035963,334.012202 117.035963,335.503185 L117.035963,419.209784 C117.035963,420.702487 117.689605,421.85039 119.034781,422.71798 C120.419573,423.613946 122.079083,424.067948 123.968531,424.067948 L169.956003,424.067948 C171.5337,424.067948 172.702333,423.4179 173.529935,422.07997 C174.386818,420.694748 174.821718,419.078227 174.821718,417.275117" id="Fill-5" fill="#92BF20"></path>
                    <path d="M221.239698,372.821453 L206.599492,372.821453 L206.599492,344.489327 L221.239698,344.489327 C230.69641,344.489327 235.49237,349.276983 235.49237,358.719879 C235.49237,368.076789 230.69641,372.821453 221.239698,372.821453 M252.07025,416.3721 C252.07025,415.61973 251.885956,415.018693 251.524257,414.584468 L234.303068,382.707172 L234.808586,382.555838 C239.858596,381.044218 243.932879,378.147376 246.917759,373.948719 C249.908667,369.742322 251.424359,364.097394 251.424359,357.172145 C251.424359,339.322476 241.550831,330.644849 221.239698,330.644849 L195.662396,330.644849 C194.218183,330.644849 193.050411,331.110029 192.091047,332.067904 C191.133405,333.02406 190.667502,334.105753 190.667502,335.374035 L190.667502,419.209612 C190.667502,420.691137 191.420181,421.83388 192.966876,422.704911 C194.572132,423.609475 196.477942,424.068636 198.633497,424.068636 C200.872587,424.068636 202.798205,423.610335 204.35954,422.70749 C205.86662,421.83646 206.599492,420.692857 206.599492,419.209612 L206.599492,385.117337 L218.143725,385.117337 L236.607609,420.948233 C237.914893,423.481357 239.691525,424.713525 242.037403,424.713525 C244.420312,424.713525 246.718824,423.81412 248.86749,422.038525 C250.992903,420.284427 252.07025,418.377275 252.07025,416.3721" id="Fill-7" fill="#92BF20"></path>
                    <path d="M286.691669,391.264592 L298.355607,349.652051 L310.165948,391.264592 L286.691669,391.264592 Z M332.000524,417.533932 C332.000524,417.473743 331.97641,417.239863 331.754224,416.348196 L306.829703,335.24265 C306.341409,333.538423 305.148663,332.255524 303.179986,331.312266 C301.179445,330.356111 298.894711,329.872014 296.390375,329.872014 C293.876565,329.872014 291.609917,330.308819 289.653296,331.17039 C287.75782,332.005307 286.55474,333.187603 286.078502,334.684606 L261.122979,415.80133 C260.90682,416.729971 260.882707,416.987066 260.882707,417.053275 C260.882707,419.017177 262.066841,420.63026 264.501422,421.986246 C266.981645,423.368028 269.623772,424.067948 272.353739,424.067948 C275.760602,424.067948 277.719806,423.073959 278.343306,421.029231 L283.242608,403.561336 L311.570546,403.561336 L316.568885,421.025791 C317.120046,423.075679 318.842423,424.067948 321.838498,424.067948 C324.161985,424.067948 326.478582,423.393824 328.72284,422.064493 C330.898202,420.779014 332.000524,419.255356 332.000524,417.533932 L332.000524,417.533932 Z" id="Fill-9" fill="#92BF20"></path>
                    <path d="M379.482244,372.821453 L364.842037,372.821453 L364.842037,344.489327 L379.482244,344.489327 C388.938956,344.489327 393.734915,349.276983 393.734915,358.719879 C393.734915,368.076789 388.938956,372.821453 379.482244,372.821453 M410.312796,416.3721 C410.312796,415.620589 410.128502,415.018693 409.766802,414.584468 L392.545614,382.707172 L393.051993,382.555838 C398.10028,381.044218 402.174564,378.147376 405.160304,373.948719 C408.150351,369.742322 409.666904,364.097394 409.666904,357.172145 C409.666904,339.322476 399.793377,330.644849 379.482244,330.644849 L353.904942,330.644849 C352.460729,330.644849 351.292957,331.110029 350.333593,332.067904 C349.375951,333.0232 348.910048,334.104894 348.910048,335.374035 L348.910048,419.209612 C348.910048,420.691137 349.662727,421.83388 351.209422,422.704911 C352.814677,423.609475 354.720488,424.068636 356.876043,424.068636 C359.114272,424.068636 361.040751,423.610335 362.602947,422.70749 C364.109166,421.83646 364.842037,420.692857 364.842037,419.209612 L364.842037,385.117337 L376.386271,385.117337 L394.850154,420.948233 C396.157439,423.481357 397.93321,424.713525 400.279949,424.713525 C402.663719,424.713525 404.96137,423.81412 407.110897,422.038525 C409.235449,420.284427 410.312796,418.377275 410.312796,416.3721" id="Fill-11" fill="#92BF20"></path>
                    <path d="M565.711783,419.209784 L565.711783,335.374207 C565.711783,333.814436 564.984079,332.672552 563.487333,331.884928 C561.917386,331.062049 559.98574,330.645021 557.745788,330.645021 C555.503253,330.645021 553.571607,331.062049 552.004244,331.884928 C550.507498,332.671692 549.779794,333.813576 549.779794,335.374207 L549.779794,369.467342 L519.853489,369.467342 L519.853489,335.374207 C519.853489,333.814436 519.125785,332.672552 517.629039,331.884928 C516.059092,331.062049 514.127446,330.645021 511.887495,330.645021 C509.64496,330.645021 507.713314,331.062049 506.14595,331.884928 C504.649205,332.671692 503.9215,333.813576 503.9215,335.374207 L503.9215,419.209784 C503.9215,420.693889 504.654372,421.837492 506.160591,422.706802 C507.720203,423.610507 509.646682,424.067948 511.887495,424.067948 C514.04305,424.067948 515.94886,423.609647 517.553255,422.704223 C519.100811,421.834052 519.853489,420.691309 519.853489,419.209784 L519.853489,381.763226 L549.779794,381.763226 L549.779794,419.209784 C549.779794,420.693889 550.512665,421.837492 552.018884,422.706802 C553.578497,423.610507 555.504976,424.067948 557.745788,424.067948 C559.901343,424.067948 561.807154,423.609647 563.411548,422.704223 C564.959104,421.834052 565.711783,420.691309 565.711783,419.209784" id="Fill-13" fill="#92BF20"></path>
                    <g id="Group-17" transform="translate(0.000000, -0.000000)">
                        <mask id="mask-2" fill="white">
                            <use xlink:href="#path-1"></use>
                        </mask>
                        <g id="Clip-16"></g>
                        <path d="M645.026048,417.275117 C645.026048,415.307775 644.571341,413.606988 643.674843,412.220906 C642.802459,410.878677 641.652772,410.22519 640.161194,410.22519 L603.172282,410.22519 L603.172282,383.439938 L623.237976,383.439938 C624.824286,383.439938 625.996363,382.84836 626.821382,381.629949 C627.673098,380.376285 628.104553,378.960109 628.104553,377.420973 C628.104553,375.716747 627.652429,374.216305 626.76196,372.96264 C625.891298,371.739071 624.738167,371.144913 623.237976,371.144913 L603.172282,371.144913 L603.172282,344.489499 L640.161194,344.489499 C641.653634,344.489499 642.80332,343.836011 643.674843,342.492922 C644.571341,341.108561 645.026048,339.406913 645.026048,337.437852 C645.026048,335.637322 644.592009,334.0208 643.734265,332.633859 C642.905802,331.295929 641.736308,330.645021 640.161194,330.645021 L594.172861,330.645021 C592.285997,330.645021 590.626486,331.099023 589.239972,331.994989 C587.894796,332.865159 587.240292,334.012202 587.240292,335.503185 L587.240292,419.209784 C587.240292,420.702487 587.894796,421.85039 589.239972,422.71798 C590.623903,423.613946 592.283413,424.067948 594.172861,424.067948 L640.161194,424.067948 C641.73803,424.067948 642.906663,423.4179 643.734265,422.07997 C644.592009,420.695608 645.026048,419.079086 645.026048,417.275117" id="Fill-15" fill="#92BF20" mask="url(#mask-2)"></path>
                    </g>
                    <g id="Group-20" transform="translate(0.000000, -0.000000)">
                        <mask id="mask-4" fill="white">
                            <use xlink:href="#path-3"></use>
                        </mask>
                        <g id="Clip-19"></g>
                        <path d="M412.869493,5.00812239 C413.781491,4.76306455 414.476471,3.96512183 414.528142,2.97285254 C414.591009,1.73982468 413.641118,0.688225596 412.406173,0.625456395 C411.171229,0.561827342 410.117995,1.51024417 410.055128,2.74413189 C410.005179,3.70630636 410.577009,4.55154094 411.416667,4.90837955 L408.150179,12.5636425 L402.589484,5.25404008 C403.096724,4.8696862 403.442922,4.28068754 403.47737,3.59624529 C403.541098,2.36321742 402.591207,1.31161835 401.356262,1.24884914 C400.120456,1.18522009 399.068084,2.13363692 399.004356,3.36666479 C398.944073,4.53778331 399.800956,5.533492 400.943753,5.68654567 L399.73895,14.6169693 L392.779685,7.65302735 C393.104353,7.28673037 393.318789,6.81897084 393.346347,6.29360123 C393.409214,5.05971351 392.459323,4.00897428 391.224378,3.94534523 C389.989434,3.88171618 388.9362,4.83099286 388.872472,6.06402073 C388.809605,7.29704859 389.759496,8.34864767 390.994441,8.41141687 C391.094339,8.41657599 391.189931,8.40539791 391.286384,8.39765924 L391.820321,17.8259372 L383.218769,14.3375173 C383.288525,14.1397514 383.341058,13.932527 383.352253,13.711545 C383.415981,12.4785172 382.46609,11.4277779 381.231146,11.3641489 C379.99534,11.3005198 378.942967,12.2489367 378.879239,13.4828244 C378.816373,14.7158522 379.766264,15.7665915 381.001208,15.8302205 C381.383576,15.8499971 381.742692,15.7631521 382.065637,15.6109582 L392.865804,36.3161961 C404.236077,25.9438006 418.834085,27.1845671 418.834085,27.1845671 L412.869493,5.00812239 Z" id="Fill-18" fill="#92BF20" mask="url(#mask-4)"></path>
                    </g>
                    <g id="Group-23" transform="translate(0.000000, -0.000000)">
                        <mask id="mask-6" fill="white">
                            <use xlink:href="#path-5"></use>
                        </mask>
                        <g id="Clip-22"></g>
                        <path d="M219.974784,485.158116 C219.974784,483.815027 219.756042,482.622412 219.318559,481.581131 C218.881075,480.53985 218.141314,479.587994 217.098414,478.726422 C216.055515,477.864851 214.681919,477.075506 212.977627,476.35839 C211.273335,475.642133 209.142754,474.925876 206.585885,474.20876 C204.11858,473.514859 201.898435,472.759049 199.925452,471.94133 C197.951608,471.12447 196.274874,470.166595 194.896111,469.069424 C193.516487,467.973112 192.451196,466.70741 191.70024,465.274037 C190.948422,463.841523 190.572944,462.162232 190.572944,460.236164 C190.572944,458.354807 190.976841,456.641982 191.784636,455.096828 C192.59157,453.551674 193.724033,452.224922 195.182025,451.116573 C196.639156,450.008223 198.377896,449.146651 200.396522,448.530138 C202.414287,447.915343 204.623236,447.606656 207.023369,447.606656 C209.601767,447.606656 211.928699,447.987571 214.003302,448.74854 C216.077906,449.510369 217.843342,450.55165 219.302196,451.872383 C220.759327,453.193975 221.880595,454.739129 222.665999,456.507845 C223.450541,458.276561 223.843243,460.180273 223.843243,462.217263 L219.671646,462.217263 C219.671646,460.628256 219.390898,459.156189 218.831126,457.801063 C218.270492,456.445936 217.451502,455.276537 216.375016,454.291146 C215.29853,453.305756 213.974883,452.533609 212.405798,451.972985 C210.835851,451.414081 209.041995,451.13377 207.023369,451.13377 C205.004743,451.13377 203.227249,451.374528 201.69175,451.856045 C200.154528,452.337562 198.876525,452.986751 197.856016,453.80361 C196.835507,454.62133 196.061299,455.579205 195.535113,456.675516 C195.008065,457.772687 194.744542,458.937787 194.744542,460.169095 C194.744542,461.333335 194.963283,462.40815 195.400767,463.39354 C195.838251,464.378931 196.571984,465.291234 197.603688,466.13045 C198.635392,466.970525 199.992625,467.75471 201.674526,468.481285 C203.356428,469.20958 205.43017,469.898321 207.898336,470.54751 C210.476735,471.264626 212.776109,472.047951 214.793874,472.898345 C216.8125,473.749599 218.516792,474.751326 219.907612,475.904388 C221.29757,477.058309 222.351665,478.385061 223.069896,479.884643 C223.787266,481.385085 224.146382,483.121126 224.146382,485.091047 C224.146382,487.084185 223.725261,488.869237 222.884741,490.447926 C222.043359,492.026614 220.87731,493.365404 219.385731,494.461715 C217.894153,495.559746 216.11752,496.398962 214.054113,496.981082 C211.990705,497.563202 209.748169,497.854692 207.325646,497.854692 C205.867654,497.854692 204.404494,497.730873 202.936168,497.484955 C201.46698,497.238178 200.053769,496.863282 198.697397,496.359409 C197.340164,495.855536 196.073356,495.212366 194.896111,494.428181 C193.718866,493.644856 192.697496,492.710197 191.834585,491.624203 C190.970813,490.53821 190.287029,489.295724 189.782373,487.895885 C189.277716,486.496906 189.025388,484.934554 189.025388,483.209691 L193.163399,483.209691 C193.163399,485.270757 193.588826,487.011097 194.442264,488.433292 C195.29398,489.855488 196.392857,491.00253 197.738894,491.87528 C199.084071,492.74889 200.598041,493.381741 202.279942,493.773834 C203.961843,494.165926 205.643745,494.361113 207.325646,494.361113 C209.231456,494.361113 210.964168,494.14271 212.52378,493.705905 C214.081671,493.26996 215.416513,492.648287 216.526585,491.841746 C217.636657,491.036065 218.488373,490.067871 219.083454,488.937166 C219.676813,487.80646 219.974784,486.546777 219.974784,485.158116" id="Fill-21" fill="#92BF20" mask="url(#mask-6)"></path>
                    </g>
                    <g id="Group-26" transform="translate(0.000000, -0.000000)">
                        <mask id="mask-8" fill="white">
                            <use xlink:href="#path-7"></use>
                        </mask>
                        <g id="Clip-25"></g>
                        <path d="M250.779587,463.594574 C249.254422,463.594574 247.841211,463.886064 246.540817,464.468183 C245.238699,465.050303 244.089874,465.878341 243.092617,466.953156 C242.0945,468.027971 241.275509,469.321189 240.636507,470.832809 C239.997505,472.344428 239.565189,474.01856 239.34128,475.854345 L261.174133,475.854345 L261.174133,475.41754 C261.129352,473.894742 260.881329,472.423535 260.434372,471.00048 C259.984832,469.579144 259.329467,468.319461 258.466556,467.22229 C257.601923,466.125118 256.532327,465.24635 255.253462,464.585123 C253.975458,463.925617 252.483879,463.594574 250.779587,463.594574 M251.519348,497.85452 C249.141606,497.85452 246.955048,497.411696 244.959674,496.527768 C242.962578,495.64298 241.241923,494.411672 239.795987,492.832984 C238.34919,491.254295 237.221895,489.378958 236.414961,487.206971 C235.607166,485.035845 235.20413,482.650615 235.20413,480.053002 L235.20413,478.608451 C235.20413,475.809632 235.62439,473.273929 236.46491,471.00048 C237.306291,468.72875 238.443921,466.791504 239.879523,465.189599 C241.314263,463.589415 242.968606,462.352088 244.841691,461.478478 C246.713915,460.604868 248.693788,460.168923 250.779587,460.168923 C253.089295,460.168923 255.140646,460.583372 256.935363,461.411409 C258.728358,462.240307 260.23716,463.393368 261.460048,464.870594 C262.681213,466.34868 263.606991,468.107077 264.235659,470.144067 C264.863465,472.181916 265.177799,474.409793 265.177799,476.828557 L265.177799,479.279995 L239.206934,479.279995 L239.206934,480.053002 C239.206934,482.046139 239.510073,483.921477 240.115488,485.679014 C240.720904,487.437412 241.572619,488.965369 242.671496,490.263746 C243.770373,491.562122 245.082824,492.587066 246.607989,493.336857 C248.132293,494.087508 249.826251,494.461543 251.688141,494.461543 C253.841112,494.461543 255.741756,494.070311 257.390071,493.286126 C259.038386,492.5028 260.535131,491.249136 261.881169,489.524273 L264.403591,491.439163 C263.798175,492.311913 263.097168,493.140811 262.301429,493.924136 C261.503969,494.709181 260.579052,495.391043 259.525818,495.973163 C258.471724,496.556143 257.282422,497.014444 255.960498,497.350646 C254.636851,497.685989 253.156467,497.85452 251.519348,497.85452" id="Fill-24" fill="#92BF20" mask="url(#mask-8)"></path>
                    </g>
                    <g id="Group-29" transform="translate(0.000000, -0.000000)">
                        <mask id="mask-10" fill="white">
                            <use xlink:href="#path-9"></use>
                        </mask>
                        <g id="Clip-28"></g>
                        <path d="M291.675884,463.594574 C290.150719,463.594574 288.737508,463.886064 287.437113,464.468183 C286.135857,465.050303 284.986171,465.878341 283.988914,466.953156 C282.990797,468.027971 282.172667,469.321189 281.533666,470.832809 C280.893802,472.344428 280.462347,474.01856 280.238438,475.854345 L302.07043,475.854345 L302.07043,475.41754 C302.025648,473.894742 301.778487,472.423535 301.330669,471.00048 C300.881129,469.579144 300.225764,468.319461 299.362853,467.22229 C298.499081,466.125118 297.428624,465.24635 296.149759,464.585123 C294.871755,463.925617 293.380176,463.594574 291.675884,463.594574 M292.415645,497.85452 C290.038764,497.85452 287.852206,497.411696 285.855971,496.527768 C283.859736,495.64298 282.139081,494.411672 280.692284,492.832984 C279.245487,491.254295 278.119053,489.378958 277.311258,487.206971 C276.504324,485.035845 276.100427,482.650615 276.100427,480.053002 L276.100427,478.608451 C276.100427,475.809632 276.520687,473.273929 277.362068,471.00048 C278.202588,468.72875 279.341079,466.791504 280.776681,465.189599 C282.211421,463.589415 283.865764,462.352088 285.737988,461.478478 C287.610212,460.604868 289.590085,460.168923 291.675884,460.168923 C293.985592,460.168923 296.036943,460.583372 297.83166,461.411409 C299.625516,462.240307 301.133457,463.393368 302.356345,464.870594 C303.578372,466.34868 304.504149,468.107077 305.131956,470.144067 C305.759762,472.181916 306.074096,474.409793 306.074096,476.828557 L306.074096,479.279995 L280.103231,479.279995 L280.103231,480.053002 C280.103231,482.046139 280.40637,483.921477 281.011785,485.679014 C281.617201,487.437412 282.469778,488.965369 283.568654,490.263746 C284.66667,491.562122 285.979121,492.587066 287.504286,493.336857 C289.029451,494.087508 290.722548,494.461543 292.584438,494.461543 C294.737409,494.461543 296.638053,494.070311 298.286368,493.286126 C299.934683,492.5028 301.431428,491.249136 302.777466,489.524273 L305.299888,491.439163 C304.694472,492.311913 303.993464,493.140811 303.197726,493.924136 C302.401127,494.709181 301.47621,495.391043 300.422115,495.973163 C299.36802,496.556143 298.17958,497.014444 296.856794,497.350646 C295.533148,497.685989 294.052764,497.85452 292.415645,497.85452" id="Fill-27" fill="#92BF20" mask="url(#mask-10)"></path>
                    </g>
                    <mask id="mask-12" fill="white">
                        <use xlink:href="#path-11"></use>
                    </mask>
                    <g id="Clip-31"></g>
                    <polygon id="Fill-30" fill="#92BF20" mask="url(#mask-12)" points="323.725104 497.182803 319.688713 497.182803 319.688713 445.591679 323.725104 445.591679"></polygon>
                    <path d="M350.289758,494.294044 C351.74689,494.294044 353.098956,494.109176 354.343373,493.73944 C355.587791,493.370563 356.715087,492.861531 357.7244,492.211482 C358.733713,491.562294 359.607819,490.806484 360.348441,489.944053 C361.088202,489.082481 361.682422,488.147822 362.131102,487.140075 L362.131102,479.14603 L355.234703,479.14603 C353.171295,479.14603 351.326629,479.330898 349.700705,479.699775 C348.074781,480.069511 346.701185,480.60176 345.579918,481.29566 C344.45865,481.989561 343.600045,482.835655 343.006686,483.831364 C342.412466,484.827933 342.115356,485.953479 342.115356,487.207143 C342.115356,488.192534 342.305679,489.116875 342.687185,489.977587 C343.067831,490.840018 343.612102,491.589809 344.318277,492.228679 C345.025312,492.86669 345.883056,493.370563 346.892369,493.73944 C347.901682,494.109176 349.033284,494.294044 350.289758,494.294044 L350.289758,494.294044 Z M362.938897,497.182287 C362.714126,496.556315 362.540166,495.788467 362.417016,494.882183 C362.293005,493.975039 362.20947,493.051558 362.164688,492.11088 C361.559273,492.895065 360.841041,493.633678 360.011717,494.327578 C359.181531,495.022339 358.250586,495.626815 357.219743,496.141006 C356.188039,496.656918 355.054715,497.070506 353.822354,497.384352 C352.588271,497.697339 351.253428,497.854692 349.818688,497.854692 C348.047223,497.854692 346.437662,497.596736 344.991726,497.081685 C343.544929,496.567493 342.310846,495.845217 341.291199,494.915717 C340.269829,493.987077 339.479258,492.895065 338.919485,491.640541 C338.358851,490.386876 338.078104,489.020571 338.078104,487.542486 C338.078104,485.77463 338.45961,484.178744 339.221762,482.756549 C339.983914,481.335214 341.083652,480.125402 342.519254,479.128833 C343.953994,478.133125 345.697901,477.371296 347.750113,476.845066 C349.802326,476.319697 352.106005,476.055722 354.662874,476.055722 L362.131102,476.055722 L362.131102,471.924133 C362.131102,469.32738 361.328474,467.284371 359.725802,465.794247 C358.122269,464.305843 355.784142,463.561212 352.712282,463.561212 C351.299071,463.561212 349.997815,463.751239 348.809375,464.132153 C347.620074,464.513068 346.594398,465.039297 345.731487,465.710842 C344.867715,466.382386 344.195127,467.160552 343.712861,468.04534 C343.230595,468.930128 342.989463,469.875965 342.989463,470.882852 L338.953072,470.849318 C338.953072,469.483873 339.289796,468.16228 339.962385,466.886259 C340.634973,465.610239 341.58228,464.473515 342.805168,463.476946 C344.027195,462.481237 345.496383,461.679855 347.21187,461.075379 C348.927358,460.470903 350.828001,460.168235 352.9138,460.168235 C354.842001,460.168235 356.619495,460.415873 358.245419,460.907708 C359.871343,461.400403 361.26733,462.139016 362.43424,463.124407 C363.599428,464.109797 364.507982,465.341105 365.159041,466.819191 C365.809238,468.297277 366.133906,470.02128 366.133906,471.992061 L366.133906,489.591513 C366.133906,490.219205 366.156297,490.868394 366.20194,491.539938 C366.245861,492.211482 366.319062,492.861531 366.419821,493.488363 C366.521441,494.115195 366.638563,494.713652 366.77377,495.284594 C366.908115,495.855536 367.064851,496.35425 367.243979,496.779876 L367.243979,497.182287 L362.938897,497.182287 Z" id="Fill-32" fill="#92BF20" mask="url(#mask-12)"></path>
                    <path d="M386.005489,460.840382 L386.139834,467.054533 C386.767641,466.02443 387.491039,465.084611 388.31003,464.232498 C389.128159,463.382104 390.04188,462.65381 391.051193,462.049334 C392.060506,461.444858 393.148187,460.980538 394.314237,460.655513 C395.480286,460.331349 396.714369,460.168837 398.014764,460.168837 C399.831872,460.168837 401.456935,460.415615 402.892536,460.90745 C404.327277,461.400145 405.544136,462.183471 406.543115,463.259146 C407.540371,464.333101 408.303385,465.716603 408.830432,467.407072 C409.356618,469.098401 409.621003,471.14055 409.621003,473.536957 L409.621003,497.182889 L405.617337,497.182889 L405.617337,473.503423 C405.617337,471.622067 405.415819,470.055416 405.011922,468.800892 C404.608885,467.547228 404.036195,466.539481 403.296434,465.777652 C402.556673,465.016683 401.653286,464.474116 400.588857,464.149092 C399.522705,463.824928 398.339432,463.661556 397.039899,463.661556 C395.604297,463.661556 394.303041,463.903175 393.136992,464.383832 C391.970943,464.866209 390.939239,465.509378 390.04188,466.31506 C389.145383,467.121601 388.371174,468.045082 387.720977,469.086363 C387.069918,470.127644 386.554927,471.1973 386.173421,472.293611 L386.173421,497.182889 L382.170616,497.182889 L382.170616,460.840382 L386.005489,460.840382 Z" id="Fill-33" fill="#92BF20" mask="url(#mask-12)"></path>
                    <path d="M427.776495,479.380942 C427.776495,481.509076 427.989209,483.484156 428.415497,485.309622 C428.840924,487.135088 429.491983,488.718075 430.366951,490.062024 C431.241057,491.405113 432.345962,492.458432 433.679943,493.219401 C435.013924,493.98037 436.601095,494.361285 438.440594,494.361285 C439.808161,494.361285 441.047412,494.198773 442.157484,493.873748 C443.267556,493.550444 444.254478,493.096442 445.11825,492.513463 C445.981161,491.932203 446.732979,491.237442 447.371981,490.431761 C448.010983,489.625219 448.554393,488.75161 449.003072,487.811791 L449.003072,470.748887 C448.600036,469.831425 448.105714,468.946637 447.52355,468.095383 C446.939664,467.24499 446.222294,466.48918 445.370579,465.827954 C444.517141,465.168447 443.53108,464.641358 442.409812,464.249265 C441.287683,463.858032 439.98815,463.661986 438.507766,463.661986 C436.645877,463.661986 435.043205,464.04806 433.697167,464.820207 C432.351129,465.593214 431.241057,466.650832 430.366951,467.994781 C429.491983,469.33787 428.840924,470.928596 428.415497,472.76438 C427.989209,474.600164 427.776495,476.570945 427.776495,478.675863 L427.776495,479.380942 Z M423.705657,478.675863 C423.705657,475.853829 424.030325,473.307807 424.681383,471.034358 C425.331581,468.761769 426.262526,466.819363 427.473357,465.20714 C428.685049,463.594918 430.159404,462.351572 431.897283,461.478822 C433.635161,460.605212 435.591782,460.168407 437.768005,460.168407 C440.346404,460.168407 442.561381,460.684318 444.411214,461.713561 C446.261909,462.743664 447.792241,464.16586 449.003072,465.979288 L449.003072,445.591335 L453.006738,445.591335 L453.006738,497.182459 L449.239038,497.182459 L449.071106,492.345791 C447.859414,494.070655 446.317025,495.418903 444.444801,496.393115 C442.572577,497.367327 440.324013,497.854004 437.699972,497.854004 C435.547,497.854004 433.607603,497.400862 431.88092,496.493718 C430.153376,495.587434 428.685049,494.322591 427.473357,492.698331 C426.262526,491.07579 425.331581,489.133384 424.681383,486.871113 C424.030325,484.609702 423.705657,482.113552 423.705657,479.380942 L423.705657,478.675863 Z" id="Fill-34" fill="#92BF20" mask="url(#mask-12)"></path>
                    <path d="M472.816659,45.1831626 C472.816659,45.1831626 474.400385,44.6672513 475.666333,44.378341 C477.070931,44.058476 478.509977,45.5193647 477.988097,47.2296105 C477.145855,49.9862962 473.459106,49.388699 471.895188,47.0198066 C470.552595,44.9853966 470.705025,45.7695817 472.816659,45.1831626" id="Fill-35" fill="#FEFEFE" mask="url(#mask-12)"></path>
                    <path d="M486.526954,399.73465 C486.526954,396.697653 485.902593,394.615091 484.672815,393.545435 C483.423231,392.459442 481.323653,391.909137 478.432643,391.909137 C473.398995,391.909137 470.834376,393.509321 470.594104,396.799115 C470.506263,398.615983 470.307328,400.183493 470.001606,401.447476 C469.691578,402.725216 469.114582,404.188684 468.28698,405.800047 C467.426652,407.471599 466.011719,408.773415 464.080934,409.668521 C462.180291,410.55073 459.793938,410.998713 456.988185,410.998713 C447.531473,410.998713 442.735514,405.863676 442.735514,395.736338 L442.735514,359.751529 C442.735514,349.624192 447.444493,344.489155 456.729828,344.489155 C459.094652,344.489155 461.188202,344.824497 462.951916,345.484004 C464.728548,346.149529 466.086643,346.966389 466.988307,347.911366 C467.880499,348.847745 468.625427,350.019724 469.205007,351.394627 C469.785448,352.778989 470.132507,353.865842 470.266852,354.717955 C470.396031,355.534815 470.505401,356.521925 470.594104,357.65435 C470.673333,360.952743 473.27929,362.546048 478.56096,362.546048 C481.451109,362.546048 483.528296,361.996603 484.732237,360.915769 C485.923261,359.844393 486.526954,357.760972 486.526954,354.720535 C486.526954,347.500357 483.691921,341.626708 478.101946,337.261239 C472.477523,332.870834 465.112638,330.644677 456.213115,330.644677 C447.490136,330.644677 440.326769,333.017869 434.922811,337.698903 C429.535215,342.361881 426.803524,349.781545 426.803524,359.751529 L426.803524,395.736338 C426.803524,405.707183 429.513685,413.126846 434.859083,417.789824 C440.220843,422.469139 447.361819,424.842331 456.083937,424.842331 C465.067857,424.842331 472.473217,422.531908 478.095918,417.973833 C483.690199,413.438113 486.526954,407.301349 486.526954,399.73465" id="Fill-36" fill="#92BF20" mask="url(#mask-12)"></path>
                    <path d="M433.952423,45.0137717 C433.510633,45.6586607 432.628776,45.8246122 431.982024,45.3835081 C430.984767,44.7068045 427.940466,43.0464302 425.861556,43.4978525 C425.162271,43.6491865 424.652447,44.0249418 424.255439,44.6784294 C423.755089,45.5021677 423.615576,46.2631368 423.82829,47.0026095 C424.207213,48.3199029 425.760797,49.7481172 428.092035,50.9218153 C428.79132,51.2734948 429.072929,52.1256082 428.719841,52.823808 C428.470958,53.318223 427.970607,53.6036939 427.452172,53.6036939 C427.237736,53.6036939 427.019855,53.5546823 426.814031,53.4515 C424.636085,52.3551887 421.875975,50.4824309 421.100044,47.7850749 C420.663422,46.2648565 420.907999,44.7257213 421.827749,43.2098021 C422.623487,41.8985277 423.812789,41.0403953 425.266475,40.7274091 C428.904136,39.9406445 433.115348,42.7248455 433.582973,43.0447105 C434.229726,43.4866744 434.395074,44.3680228 433.952423,45.0137717 M472.817004,45.1831626 C472.817004,45.1831626 474.40073,44.6672513 475.665816,44.378341 C477.071276,44.058476 478.510322,45.5193647 477.98758,47.2296105 C477.146199,49.9862962 473.459451,49.388699 471.895532,47.0198066 C470.552939,44.9853966 470.704508,45.7704415 472.817004,45.1831626 M491.776071,175.682911 C489.197672,166.953693 474.645307,156.535725 472.556064,155.605365 C464.918182,152.20465 452.343967,159.103243 452.343967,159.103243 C454.468519,141.415226 448.623632,124.970556 447.783112,113.199181 C446.245891,91.6874018 460.886958,75.3287162 467.790246,73.7878613 C473.782396,72.4507913 477.398527,70.9322926 479.504133,69.0879099 C480.635735,68.0965005 481.544289,66.675165 482.271132,65.0216695 C480.454025,65.3105798 478.771262,65.4352583 477.236624,65.4352583 C469.818345,65.4352583 465.75009,62.6278413 465.534793,62.4747876 C464.895791,62.0225055 464.745944,61.1377177 465.199791,60.4997074 C465.651915,59.8642768 466.533772,59.7138027 467.171913,60.1609257 C467.235641,60.2047782 473.008188,64.0758322 483.351063,61.93824 C484.773747,56.7309758 484.840058,50.4196616 484.015901,46.6664074 C482.671585,40.5382417 478.493098,35.9715673 467.339844,38.7970412 C464.429027,39.5339345 441.559302,28.7754654 428.352114,25.2173975 C428.506266,24.1520408 428.578606,23.0393922 428.538992,21.8691336 C428.230686,12.816611 423.699112,9.5139192 422.735442,10.0771223 C421.58231,10.7521062 423.650024,13.292969 423.251294,17.6601577 C423.021356,20.1786644 422.564065,22.0823769 421.754548,23.7625278 C421.182719,23.6619251 420.607445,23.5725005 420.000307,23.4994131 C406.384915,21.8579555 399.100981,28.1030611 394.620217,32.0110887 C391.4631,30.7135719 389.448779,28.9207804 387.23208,25.3463753 C384.92065,21.6180568 385.631992,18.4219866 384.29801,18.3334219 C383.183632,18.2586147 380.60954,23.2362984 384.387574,31.4711016 C385.564819,34.0369002 387.148545,36.0498139 388.97082,37.6224833 C386.994392,40.6199276 386.343333,43.5924362 386.18143,44.058476 C386.00747,44.5614895 384.496084,44.7523767 383.968175,44.8598582 C377.224207,46.2364813 363.778469,51.65011 364.388191,55.654441 C365.912495,66.8995864 384.469387,66.8617529 384.71827,68.1498113 C385.275459,71.0397741 384.013818,83.7096943 370.058257,94.3065112 C356.98972,104.230924 335.047495,110.93605 304.556251,117.650635 C238.362711,132.225987 201.049992,115.70307 196.204945,111.392632 C194.851157,110.188839 190.068976,108.224077 194.123452,94.8241422 C203.290805,64.5281144 250.171329,71.7422732 268.196868,75.4009438 C268.462975,79.787909 271.74152,85.7681802 279.08057,86.263455 C287.530552,86.8335369 292.30326,85.1146926 296.225974,92.8774371 C298.768203,97.9075717 301.023656,69.1128456 281.44281,67.3217738 C276.550398,66.9357002 273.108227,67.6777525 270.95181,69.2306454 C256.23582,61.8221599 209.55423,52.2872603 186.234965,83.6907776 C176.854898,96.3220045 179.460855,110.119191 181.090224,113.694456 C182.718732,117.269721 163.383325,128.074622 168.398887,160.571011 C173.404977,193.00807 194.387837,220.918868 165.329611,225.547452 C142.583036,229.170869 153.805185,244.614672 159.88776,256.574354 C163.404855,263.487565 173.451481,274.90898 168.204259,275.387917 C162.957037,275.867715 154.848085,273.981199 154.129853,277.979512 C153.410761,281.978684 151.206118,292.126658 151.045076,293.652035 C150.578312,296.337353 151.243149,311.493966 175.026595,293.991677 C193.38972,280.449867 190.287718,273.8634 181.812761,249.197683 C183.447297,250.273358 197.738722,253.541656 212.384096,250.923406 C212.384096,250.923406 216.561722,254.442781 216.798548,255.809946 C217.004372,256.997401 216.668509,260.134142 214.173646,261.36201 C211.678782,262.589879 203.618057,260.294074 203.826464,265.265739 C204.317342,276.980363 203.176267,283.62874 207.508907,284.773203 C215.326777,286.82567 227.405808,274.720672 230.269261,271.06974 C234.192836,266.067121 234.737107,264.644066 235.381276,258.92347 C235.243486,248.600946 232.576385,244.440122 231.316466,243.142605 C236.267439,241.084979 239.358245,236.037647 242.384462,228.016947 C244.961999,231.25601 239.936103,239.076365 241.291614,241.180423 C242.986433,243.81071 245.557081,238.856242 247.705746,235.315372 C250.05593,231.443458 251.79467,233.608565 249.207659,240.869156 C248.02008,244.814157 251.247815,246.228614 253.141569,241.962028 C254.235278,239.499412 254.393737,235.72896 256.671581,235.662752 C257.909109,235.626638 258.54725,236.164046 257.214991,242.252658 C256.75081,244.377353 256.703445,245.835662 257.947863,246.210557 C259.493696,246.675737 260.770839,244.873487 262.246055,239.56906 C263.306178,235.759915 266.565777,236.673078 265.100034,242.033396 C263.296705,248.627601 267.327068,248.465949 268.401831,244.785782 C268.548233,244.284489 270.658145,235.900071 271.204139,235.575047 C276.608097,232.354041 280.101939,229.51223 281.648634,227.074549 C290.062447,230.455488 295.503437,232.758172 310.500175,232.809763 C339.351716,232.910365 355.185529,224.617092 365.033221,218.611026 C378.288636,219.316104 383.992288,220.345347 392.401795,220.714224 C409.555811,221.574936 437.728735,209.205964 439.428722,223.218113 C439.791282,226.208678 432.68217,241.89238 431.533344,243.556194 C430.384519,245.220008 422.148972,245.279337 419.333747,245.796108 C414.446501,246.381668 409.463664,265.266599 411.625247,267.589919 C413.973709,270.114445 425.870168,270.748156 437.886333,262.245938 C449.901636,253.743721 459.3816,225.648055 458.924309,221.090839 C458.467018,216.533623 454.40393,203.418299 448.720947,197.296153 C444.498539,192.748395 431.526455,196.749287 427.91463,194.468099 C431.115668,193.292681 433.930894,191.882524 436.395615,190.268582 L436.335332,190.373484 C449.924027,190.262563 463.119159,178.108554 463.119159,178.108554 C463.119159,178.108554 472.675769,181.737989 473.076222,182.990794 C473.477536,184.242738 478.137427,203.195598 473.828901,203.502565 C469.519513,203.809532 467.485385,204.130257 466.375313,205.408857 C465.265241,206.687457 463.152745,224.97909 466.964366,227.602499 C469.738255,229.51137 485.891569,222.373738 487.428791,220.552571 C491.655505,215.544793 494.353609,184.411269 491.776071,175.682911" id="Fill-37" fill="#473029" mask="url(#mask-12)"></path>
                </g>
            </g>
        </g>
    </g>
</svg>