<?xml version="1.0" encoding="UTF-8"?>
<svg width="260px" height="78px" viewBox="0 0 260 78" version="1.1" xmlns="http://www.w3.org/2000/svg" xmlns:xlink="http://www.w3.org/1999/xlink">
    <!-- Generator: Sketch 50.2 (55047) - http://www.bohemiancoding.com/sketch -->
    <title>Group</title>
    <desc>Created with Sketch.</desc>
    <defs></defs>
    <g id="Die-Tiere" stroke="none" stroke-width="1" fill="none" fill-rule="evenodd">
        <g id="Desktop-HD" transform="translate(-24.000000, -194.000000)">
            <g id="Group" transform="translate(24.000000, 194.000000)">
                <g id="Page-1">
                    <g id="Group-4" transform="translate(96.000000, 18.000000)" fill="#92BF20">
                        <path d="M16.3425869,2.07042233 C16.3425869,1.6022605 16.2321788,1.18497153 16.014642,0.830177232 C15.80432,0.487662585 15.5076392,0.321010131 15.1073278,0.321010131 L1.23525908,0.321010131 C0.835166315,0.321010131 0.538266876,0.487662585 0.328163518,0.830177232 C0.110408112,1.18519081 3.36086714e-12,1.6022605 3.36086714e-12,2.07042233 C3.36086714e-12,2.58068583 0.115217971,3.01332437 0.342374463,3.35561973 C0.563190688,3.68958248 0.855280268,3.85163006 1.23525908,3.85163006 L6.1653639,3.85163006 L6.1653639,22.9002247 C6.1653639,23.2806747 6.35141796,23.5738515 6.73423896,23.7975166 C7.1297405,24.0286373 7.61881564,24.1459518 8.18769071,24.1459518 C8.73492141,24.1459518 9.21896807,24.028418 9.62605699,23.7968588 C10.018935,23.5731937 10.2100175,23.2800169 10.2100175,22.9002247 L10.2100175,3.85163006 L15.1073278,3.85163006 C15.4864321,3.85163006 15.7783031,3.68453905 15.9993379,3.34092801 C16.2271503,2.98657226 16.3425869,2.55897715 16.3425869,2.07042233" id="Fill-1"></path>
                        <path d="M24.2461462,22.9069128 L24.2461462,1.52715726 C24.2461462,1.12960345 24.0614039,0.838180935 23.6814251,0.637320873 C23.2828627,0.42747035 22.7924758,0.321119771 22.2238194,0.321119771 C21.654507,0.321119771 21.1641201,0.42747035 20.7662137,0.637320873 C20.3862348,0.837961655 20.2014926,1.12916489 20.2014926,1.52715726 L20.2014926,22.9069128 C20.2014926,23.2853893 20.3875466,23.577031 20.7699304,23.7987227 C21.1658692,24.0291855 21.6549443,24.1458422 22.2238194,24.1458422 C22.7710501,24.1458422 23.2548781,24.0289662 23.6621857,23.7980648 C24.0550636,23.5761539 24.2461462,23.2847314 24.2461462,22.9069128" id="Fill-3"></path>
                        <path d="M44.3819842,22.4135338 C44.3819842,21.9118222 44.2665476,21.4780873 44.0387352,21.1246086 C43.8172631,20.7823133 43.5256108,20.6156608 43.1467251,20.6156608 L33.7565698,20.6156608 L33.7565698,13.7848837 L38.8506471,13.7848837 C39.2531448,13.7848837 39.5507001,13.6340194 39.7603662,13.3233003 C39.9763726,13.0035907 40.0859061,12.6424373 40.0859061,12.2499269 C40.0859061,11.8153149 39.9713441,11.4326721 39.7452807,11.1129625 C39.5242459,10.8009277 39.2315004,10.6494056 38.8506471,10.6494056 L33.7565698,10.6494056 L33.7565698,3.8517397 L43.1467251,3.8517397 C43.5258294,3.8517397 43.8177003,3.68508725 44.0387352,3.3425726 C44.2665476,2.98953254 44.3819842,2.5557976 44.3819842,2.05342817 C44.3819842,1.5942568 44.2715761,1.18223054 44.0540393,0.828313355 C43.8437173,0.487114386 43.5468179,0.321119771 43.1467251,0.321119771 L31.4718871,0.321119771 C30.9928689,0.321119771 30.571569,0.43689937 30.2193562,0.665388655 C29.8778563,0.887299553 29.7119162,1.17981846 29.7119162,1.56004919 L29.7119162,22.9069128 C29.7119162,23.287582 29.8778563,23.5803202 30.2193562,23.8015733 C30.5709132,24.0300626 30.992213,24.1458422 31.4718871,24.1458422 L43.1467251,24.1458422 C43.5472551,24.1458422 43.8439359,23.9800668 44.0540393,23.6388679 C44.2715761,23.2856085 44.3819842,22.873363 44.3819842,22.4135338" id="Fill-5"></path>
                        <path d="M56.1661153,11.0769568 L52.4494066,11.0769568 L52.4494066,3.85169585 L56.1661153,3.85169585 C58.5668905,3.85169585 59.7844406,5.07264434 59.7844406,7.48077229 C59.7844406,9.86697229 58.5668905,11.0769568 56.1661153,11.0769568 M63.9930666,22.1832464 C63.9930666,21.9913768 63.9462798,21.8381004 63.8544553,21.7273642 L59.4825126,13.5980137 L59.6108484,13.5594205 C60.8928943,13.1739271 61.9272325,12.4351743 62.6850038,11.3644323 C63.4443055,10.2917168 63.8290942,8.85214656 63.8290942,7.08606911 C63.8290942,2.53404507 61.3225021,0.321075915 56.1661153,0.321075915 L49.6728065,0.321075915 C49.3061641,0.321075915 49.0097019,0.439706148 48.7661482,0.68398356 C48.5230317,0.927822412 48.4047529,1.20367608 48.4047529,1.5271134 L48.4047529,22.9068689 C48.4047529,23.2846876 48.5958355,23.5761101 48.9884948,23.7982402 C49.396021,24.0289223 49.879849,24.1460176 50.4270798,24.1460176 C50.9955176,24.1460176 51.4843741,24.0291416 51.8807501,23.7988981 C52.2633525,23.5767679 52.4494066,23.2851261 52.4494066,22.9068689 L52.4494066,14.2126543 L55.3801407,14.2126543 L60.0675663,23.3502521 C60.3994465,23.9962497 60.8504801,24.3104773 61.446028,24.3104773 C62.050977,24.3104773 62.6345003,24.0811109 63.1799819,23.6282986 C63.7195606,23.1809683 63.9930666,22.6946063 63.9930666,22.1832464" id="Fill-7"></path>
                        <path d="M72.782405,15.7803276 L75.7435287,5.16829408 L78.7418195,15.7803276 L72.782405,15.7803276 Z M84.2849627,22.4795369 C84.2849627,22.4641874 84.278841,22.4045433 84.2224345,22.1771504 L77.8948472,1.49360749 C77.770884,1.05899544 77.4680816,0.731830356 76.9682936,0.491280697 C76.4604163,0.247441845 75.8803911,0.123987462 75.2446152,0.123987462 C74.6064345,0.123987462 74.0310005,0.23538147 73.5342733,0.455099572 C73.0530689,0.668020009 72.7476429,0.969529381 72.6267405,1.35129507 L66.2912825,22.0376886 C66.2364064,22.2745106 66.2302848,22.3400751 66.2302848,22.3569597 C66.2302848,22.8577941 66.5309009,23.2691626 67.1489677,23.6149664 C67.7786219,23.9673486 68.4493785,24.1458422 69.1424354,24.1458422 C70.0073354,24.1458422 70.5047185,23.892355 70.6630065,23.3709083 L71.9067922,18.9162443 L79.0984049,18.9162443 L80.367333,23.3700312 C80.5072562,23.8927936 80.944516,24.1458422 81.7051295,24.1458422 C82.2949931,24.1458422 82.8831076,23.973927 83.4528572,23.6349208 C84.0051164,23.3070979 84.2849627,22.9185346 84.2849627,22.4795369 L84.2849627,22.4795369 Z" id="Fill-9"></path>
                        <path d="M96.3391455,11.0769568 L92.6224367,11.0769568 L92.6224367,3.85169585 L96.3391455,3.85169585 C98.7399207,3.85169585 99.9574707,5.07264434 99.9574707,7.48077229 C99.9574707,9.86697229 98.7399207,11.0769568 96.3391455,11.0769568 M104.166097,22.1832464 C104.166097,21.9915961 104.11931,21.8381004 104.027485,21.7273642 L99.6555428,13.5980137 L99.7840972,13.5594205 C101.065706,13.1739271 102.100044,12.4351743 102.858034,11.3644323 C103.617117,10.2917168 104.002124,8.85214656 104.002124,7.08606911 C104.002124,2.53404507 101.495532,0.321075915 96.3391455,0.321075915 L89.8458367,0.321075915 C89.4791943,0.321075915 89.1827321,0.439706148 88.9391784,0.68398356 C88.6960619,0.927603133 88.5777831,1.2034568 88.5777831,1.5271134 L88.5777831,22.9068689 C88.5777831,23.2846876 88.7688657,23.5761101 89.161525,23.7982402 C89.5690512,24.0289223 90.0528792,24.1460176 90.6001099,24.1460176 C91.1683291,24.1460176 91.6574042,24.0291416 92.0539989,23.7988981 C92.4363827,23.5767679 92.6224367,23.2851261 92.6224367,22.9068689 L92.6224367,14.2126543 L95.5531709,14.2126543 L100.240596,23.3502521 C100.572477,23.9962497 101.023292,24.3104773 101.619058,24.3104773 C102.224226,24.3104773 102.80753,24.0811109 103.353231,23.6282986 C103.892591,23.1809683 104.166097,22.6946063 104.166097,22.1832464" id="Fill-11"></path>
                        <path d="M143.617233,22.9069128 L143.617233,1.52715726 C143.617233,1.12938417 143.432491,0.838180935 143.052512,0.637320873 C142.653949,0.42747035 142.163562,0.321119771 141.594906,0.321119771 C141.025594,0.321119771 140.535207,0.42747035 140.1373,0.637320873 C139.757321,0.837961655 139.572579,1.12916489 139.572579,1.52715726 L139.572579,10.2215912 L131.975189,10.2215912 L131.975189,1.52715726 C131.975189,1.12938417 131.790447,0.838180935 131.410468,0.637320873 C131.011906,0.42747035 130.521519,0.321119771 129.952862,0.321119771 C129.38355,0.321119771 128.893163,0.42747035 128.495257,0.637320873 C128.115278,0.837961655 127.930536,1.12916489 127.930536,1.52715726 L127.930536,22.9069128 C127.930536,23.2853893 128.11659,23.577031 128.498973,23.7987227 C128.894912,24.0291855 129.383987,24.1458422 129.952862,24.1458422 C130.500093,24.1458422 130.983921,24.0289662 131.391229,23.7980648 C131.784107,23.5761539 131.975189,23.2847314 131.975189,22.9069128 L131.975189,13.3572886 L139.572579,13.3572886 L139.572579,22.9069128 C139.572579,23.2853893 139.758633,23.577031 140.141017,23.7987227 C140.536956,24.0291855 141.026031,24.1458422 141.594906,24.1458422 C142.142137,24.1458422 142.625965,24.0289662 143.033272,23.7980648 C143.42615,23.5761539 143.617233,23.2847314 143.617233,22.9069128" id="Fill-13"></path>
                        <path d="M163.752743,22.4135338 C163.752743,21.9118222 163.637306,21.4780873 163.409713,21.1246086 C163.18824,20.7823133 162.896369,20.6156608 162.517702,20.6156608 L153.127328,20.6156608 L153.127328,13.7848837 L158.221406,13.7848837 C158.624122,13.7848837 158.921677,13.6340194 159.131125,13.3233003 C159.34735,13.0035907 159.456883,12.6424373 159.456883,12.2499269 C159.456883,11.8153149 159.342103,11.4326721 159.116039,11.1129625 C158.895005,10.8009277 158.602259,10.6494056 158.221406,10.6494056 L153.127328,10.6494056 L153.127328,3.8517397 L162.517702,3.8517397 C162.896588,3.8517397 163.188459,3.68508725 163.409713,3.3425726 C163.637306,2.98953254 163.752743,2.55557832 163.752743,2.05342817 C163.752743,1.5942568 163.642553,1.18201126 163.424798,0.828313355 C163.214476,0.487114386 162.917577,0.321119771 162.517702,0.321119771 L150.842646,0.321119771 C150.363628,0.321119771 149.942328,0.43689937 149.590334,0.665388655 C149.248834,0.887299553 149.082675,1.17981846 149.082675,1.56004919 L149.082675,22.9069128 C149.082675,23.287582 149.248834,23.5803202 149.590334,23.8015733 C149.941672,24.0300626 150.362972,24.1458422 150.842646,24.1458422 L162.517702,24.1458422 C162.918014,24.1458422 163.214695,23.9800668 163.424798,23.6388679 C163.642553,23.2858278 163.752743,22.8735823 163.752743,22.4135338" id="Fill-15"></path>
                        <path d="M55.8449917,39.7250617 C55.8449917,39.382547 55.7894597,39.0784063 55.6783957,38.8128588 C55.5673317,38.5473113 55.3795285,38.3045688 55.1147677,38.0848507 C54.8500069,37.8651326 54.5012921,37.663834 54.0686235,37.4809548 C53.6359549,37.298295 53.0950645,37.1156351 52.4459522,36.932756 C51.8195775,36.7557974 51.2559495,36.5630507 50.7550684,36.3545158 C50.2539686,36.1462003 49.8282961,35.9019229 49.4782696,35.6221222 C49.1280245,35.3425407 48.8575792,35.0197612 48.6669339,34.6542222 C48.47607,34.2889025 48.3807474,33.8606496 48.3807474,33.3694634 C48.3807474,32.8896798 48.4832848,32.4528749 48.6883597,32.0588296 C48.8932159,31.6647842 49.1807143,31.3264359 49.5508547,31.0437846 C49.9207766,30.7611332 50.3621904,30.5414151 50.8746589,30.3841917 C51.3869089,30.2274068 51.9476946,30.1486855 52.5570162,30.1486855 C53.2115942,30.1486855 53.8023323,30.2458263 54.3290118,30.4398887 C54.8556912,30.6341704 55.3038826,30.8997179 55.6742417,31.2365313 C56.0441635,31.5735639 56.3288197,31.9676093 56.5282102,32.4186673 C56.727382,32.8697253 56.8270773,33.3552102 56.8270773,33.8746835 L55.7680339,33.8746835 C55.7680339,33.4694549 55.6967606,33.0940483 55.5546511,32.7484637 C55.412323,32.4028792 55.204406,32.104659 54.9311186,31.8533646 C54.6578312,31.6020703 54.321797,31.4051573 53.9234532,31.262187 C53.5248909,31.1196553 53.0694848,31.0481702 52.5570162,31.0481702 C52.0445477,31.0481702 51.5932955,31.1095684 51.2034783,31.232365 C50.8132239,31.3551615 50.4887771,31.5207176 50.2297007,31.7290331 C49.9706242,31.937568 49.7740759,32.1818454 49.640493,32.4614268 C49.5066915,32.7412275 49.4397907,33.0383513 49.4397907,33.3523596 C49.4397907,33.6492641 49.4953227,33.9233635 49.6063867,34.1746579 C49.7174507,34.4259522 49.9037234,34.6586078 50.1656421,34.8726247 C50.4275607,35.0868608 50.7721215,35.2868437 51.1991057,35.4721349 C51.62609,35.6578647 52.1525509,35.8335076 52.7791442,35.9990637 C53.4337222,36.1819428 54.0174641,36.3817065 54.529714,36.598574 C55.0421826,36.8156607 55.4748512,37.0711214 55.8279385,37.3651752 C56.1808072,37.6594484 56.4484103,37.9977967 56.6307476,38.3802203 C56.8128663,38.7628631 56.904035,39.2055885 56.904035,39.7079579 C56.904035,40.2162479 56.797125,40.6714722 56.5837422,41.0740694 C56.3701407,41.4766667 56.0741158,41.8180849 55.6954488,42.0976664 C55.3167818,42.3776863 54.8657482,42.5917032 54.3419109,42.7401554 C53.8180736,42.8886077 53.2487613,42.9629434 52.6337553,42.9629434 C52.2636149,42.9629434 51.8921626,42.9313672 51.5193986,42.8686532 C51.1464159,42.80572 50.7876442,42.7101141 50.4433021,42.5816163 C50.0987413,42.4531185 49.7771367,42.2890974 49.4782696,42.0891145 C49.1794025,41.8893508 48.9201074,41.6509939 48.7010402,41.3740439 C48.4817544,41.0970938 48.3081622,40.7802349 48.1800451,40.4232478 C48.051928,40.0664799 47.9878694,39.668049 47.9878694,39.2281742 L49.0383862,39.2281742 C49.0383862,39.7537873 49.1463894,40.1976091 49.3630516,40.5602975 C49.5792766,40.9229858 49.8582484,41.2155048 50.199967,41.4380735 C50.5414669,41.6608615 50.9258183,41.8222512 51.3528026,41.9222427 C51.7797868,42.0222342 52.2067711,42.0720106 52.6337553,42.0720106 C53.1175833,42.0720106 53.5574668,42.0163136 53.9534055,41.9049196 C54.3489071,41.7937449 54.6877835,41.6352058 54.9695974,41.4295216 C55.2514114,41.2240567 55.4676364,40.9771479 55.6187097,40.6887953 C55.7693457,40.4004427 55.8449917,40.0791982 55.8449917,39.7250617" id="Fill-21"></path>
                        <path d="M63.665406,34.2259254 C63.2782124,34.2259254 62.9194407,34.3002612 62.5893095,34.4487135 C62.258741,34.5971657 61.9670887,34.8083319 61.7139152,35.0824313 C61.4605232,35.3565308 61.2526061,35.6863272 61.0903827,36.0718206 C60.9281593,36.4573141 60.8184071,36.8842514 60.7615633,37.3524132 L66.3042692,37.3524132 L66.3042692,37.2410192 C66.2929004,36.8526751 66.229935,36.4774878 66.1164661,36.1145802 C66.0023412,35.7521111 65.8359639,35.4308665 65.6168967,35.1510658 C65.3973922,34.8712651 65.1258539,34.6471614 64.8011884,34.4785355 C64.4767416,34.3103481 64.0980746,34.2259254 63.665406,34.2259254 M63.8532091,42.9628996 C63.2495718,42.9628996 62.6944705,42.8499706 62.1879049,42.6245512 C61.6809021,42.3989126 61.2440795,42.0849043 60.8769999,41.682307 C60.5097016,41.2797098 60.223515,40.8014611 60.0186588,40.247561 C59.8135839,39.6938801 59.7112651,39.0855987 59.7112651,38.4231552 L59.7112651,38.0547656 C59.7112651,37.3410106 59.8179565,36.6943553 60.0313393,36.1145802 C60.2449408,35.5352436 60.5337509,35.0412068 60.898207,34.632689 C61.2624444,34.2246098 61.6824325,33.9090665 62.1579526,33.6862785 C62.6332541,33.4634905 63.1358843,33.3523157 63.665406,33.3523157 C64.2517714,33.3523157 64.7725479,33.4580085 65.2281727,33.6691747 C65.6833602,33.8805602 66.0663998,34.174614 66.3768543,34.5513363 C66.6868715,34.9282778 66.9218987,35.3767045 67.0814985,35.8961777 C67.2408798,36.4158702 67.3206797,36.9840235 67.3206797,37.6008569 L67.3206797,38.2260229 L60.727457,38.2260229 L60.727457,38.4231552 C60.727457,38.9314452 60.8044148,39.4096939 60.9581116,39.8579012 C61.1118084,40.3063279 61.3280334,40.6959877 61.6070052,41.0270998 C61.885977,41.3582119 62.219169,41.6195931 62.6063626,41.8108049 C62.9933376,42.0022359 63.4233826,42.0976225 63.8960605,42.0976225 C64.4426353,42.0976225 64.9251516,41.9978503 65.3436093,41.7978674 C65.7620669,41.5981037 66.1420458,41.2783941 66.4837643,40.8385194 L67.1241314,41.3268549 C66.9704345,41.5494236 66.7924698,41.7608091 66.5904557,41.9605728 C66.3880044,42.160775 66.1531959,42.3346637 65.8858115,42.4831159 C65.6182085,42.6317875 65.3162805,42.7486635 64.9806836,42.8344018 C64.6446494,42.9199208 64.2688246,42.9628996 63.8532091,42.9628996" id="Fill-24"></path>
                        <path d="M74.0477476,34.2259254 C73.660554,34.2259254 73.3017823,34.3002612 72.9716511,34.4487135 C72.6413013,34.5971657 72.3494303,34.8083319 72.0962569,35.0824313 C71.8428648,35.3565308 71.6351664,35.6863272 71.4729429,36.0718206 C71.3105009,36.4573141 71.2009673,36.8842514 71.1441235,37.3524132 L76.6866108,37.3524132 L76.6866108,37.2410192 C76.675242,36.8526751 76.6124952,36.4774878 76.4988077,36.1145802 C76.3846829,35.7521111 76.2183055,35.4308665 75.9992383,35.1510658 C75.7799525,34.8712651 75.5081955,34.6471614 75.18353,34.4785355 C74.8590832,34.3103481 74.4804162,34.2259254 74.0477476,34.2259254 M74.2355507,42.9628996 C73.6321321,42.9628996 73.0770307,42.8499706 72.5702465,42.6245512 C72.0634624,42.3989126 71.6266398,42.0849043 71.2593415,41.682307 C70.8920432,41.2797098 70.6060753,40.8014611 70.4010004,40.247561 C70.1961442,39.6938801 70.0936068,39.0855987 70.0936068,38.4231552 L70.0936068,38.0547656 C70.0936068,37.3410106 70.2002982,36.6943553 70.4138996,36.1145802 C70.6272824,35.5352436 70.9163112,35.0412068 71.2807672,34.632689 C71.6450047,34.2246098 72.0649928,33.9090665 72.5402942,33.6862785 C73.0155957,33.4634905 73.5182259,33.3523157 74.0477476,33.3523157 C74.634113,33.3523157 75.1548895,33.4580085 75.6105143,33.6691747 C76.0659204,33.8805602 76.4487414,34.174614 76.7591959,34.5513363 C77.0694318,34.9282778 77.304459,35.3767045 77.4638402,35.8961777 C77.6232214,36.4158702 77.7030213,36.9840235 77.7030213,37.6008569 L77.7030213,38.2260229 L71.1097986,38.2260229 L71.1097986,38.4231552 C71.1097986,38.9314452 71.1867564,39.4096939 71.3404532,39.8579012 C71.4941501,40.3063279 71.7105937,40.6959877 71.9895655,41.0270998 C72.2683186,41.3582119 72.6015106,41.6195931 72.9887042,41.8108049 C73.3758978,42.0022359 73.8057243,42.0976225 74.2784022,42.0976225 C74.824977,42.0976225 75.3074932,41.9978503 75.7259509,41.7978674 C76.1444086,41.5981037 76.5243874,41.2783941 76.866106,40.8385194 L77.506473,41.3268549 C77.3527762,41.5494236 77.1748114,41.7608091 76.9727974,41.9605728 C76.7705647,42.160775 76.5357561,42.3346637 76.2681531,42.4831159 C76.0005501,42.6317875 75.6988408,42.7486635 75.3630252,42.8344018 C75.026991,42.9199208 74.6511662,42.9628996 74.2355507,42.9628996" id="Fill-27"></path>
                        <polygon id="Fill-30" points="82.1840821 42.7915984 81.1593637 42.7915984 81.1593637 29.6348258 82.1840821 29.6348258"></polygon>
                        <path d="M88.9280501,42.0549068 C89.2979719,42.0549068 89.6412209,42.0077617 89.9571412,41.9134715 C90.2730614,41.8194006 90.559248,41.6895871 90.8154823,41.5238118 C91.0717165,41.3582557 91.2936259,41.165509 91.4816476,40.9455716 C91.6694507,40.7258535 91.8203054,40.4874967 91.9342116,40.230501 L91.9342116,38.1918591 L90.1834231,38.1918591 C89.6595858,38.1918591 89.1912805,38.2390042 88.7785072,38.3330752 C88.3657339,38.4273654 88.0170192,38.5630994 87.7323631,38.740058 C87.4477069,38.9170166 87.2297329,39.1327876 87.0790968,39.3867134 C86.9282422,39.6408584 86.8528149,39.9278953 86.8528149,40.2476048 C86.8528149,40.4988992 86.9011321,40.7346247 86.9979851,40.9541235 C87.0946196,41.1740609 87.2327937,41.3652727 87.4120702,41.5281974 C87.5915654,41.6909028 87.8093208,41.8194006 88.0655551,41.9134715 C88.3217893,42.0077617 88.6090691,42.0549068 88.9280501,42.0549068 L88.9280501,42.0549068 Z M92.1392865,42.7914668 C92.082224,42.6318313 92.0380608,42.4360147 92.0067967,42.2048941 C91.975314,41.9735541 91.9541069,41.7380479 91.9427382,41.4981561 C91.7890413,41.698139 91.606704,41.8865002 91.3961633,42.0634587 C91.1854041,42.2406366 90.9490651,42.3947901 90.6873651,42.5259193 C90.4254465,42.657487 90.1377295,42.7629605 89.8248701,42.8429975 C89.5115734,42.9228153 89.172697,42.9629434 88.8084595,42.9629434 C88.3587378,42.9629434 87.9501185,42.8971596 87.5830388,42.7658111 C87.2157405,42.634682 86.9024439,42.4504871 86.643586,42.213446 C86.3842909,41.976624 86.1835887,41.698139 86.0414792,41.3782102 C85.8991511,41.0585006 85.8278778,40.7100654 85.8278778,40.3331239 C85.8278778,39.8822851 85.9247308,39.4753023 86.1182183,39.1126139 C86.3117058,38.7501448 86.5908962,38.4416185 86.9553523,38.1874735 C87.3195898,37.9335478 87.7623154,37.7392661 88.2833105,37.6050671 C88.8043056,37.4710873 89.3891406,37.4037684 90.0382529,37.4037684 L91.9342116,37.4037684 L91.9342116,36.3501302 C91.9342116,35.687906 91.7304485,35.1668978 91.3235782,34.7868864 C90.9164893,34.4073135 90.322909,34.2174174 89.5430561,34.2174174 C89.1842844,34.2174174 88.8539346,34.2658782 88.5522253,34.363019 C88.2502973,34.4601599 87.9899091,34.5943589 87.7708419,34.7656163 C87.5515561,34.9368736 87.3808061,35.1353216 87.2583734,35.3609602 C87.1359406,35.5865989 87.0747242,35.8278064 87.0747242,36.0845827 L86.0500058,36.0760308 C86.0500058,35.7278149 86.1354901,35.3907822 86.30624,35.0653714 C86.47699,34.7399606 86.7174829,34.450073 87.0279374,34.195928 C87.3381733,33.9420023 87.7111559,33.7376338 88.1466668,33.5834802 C88.5821776,33.4293267 89.0646938,33.3521403 89.5942155,33.3521403 C90.0837279,33.3521403 90.5349801,33.4152928 90.9477534,33.5407207 C91.3605267,33.6663679 91.7149258,33.854729 92.0111693,34.1060234 C92.3069756,34.3573177 92.5376302,34.6713261 92.7029144,35.0482676 C92.86798,35.4252091 92.9504035,35.8648646 92.9504035,36.3674533 L92.9504035,40.855667 C92.9504035,41.0157411 92.9560879,41.1812971 92.9676752,41.3525545 C92.9788254,41.5238118 92.9974089,41.6895871 93.0229886,41.8494419 C93.0487869,42.0092967 93.0785206,42.1619153 93.1128455,42.3075169 C93.1469518,42.4531185 93.1867424,42.5803006 93.2322175,42.688844 L93.2322175,42.7914668 L92.1392865,42.7914668 Z" id="Fill-32"></path>
                        <path d="M97.9952016,33.5235511 L98.0293078,35.1082844 C98.188689,34.8455875 98.3723382,34.605915 98.5802552,34.3886089 C98.7879537,34.1717415 99.01992,33.9860117 99.2761543,33.8318582 C99.5323886,33.6777047 99.8085182,33.5592937 100.104543,33.476406 C100.400568,33.3937376 100.713865,33.3522938 101.043996,33.3522938 C101.505305,33.3522938 101.91786,33.415227 102.282316,33.5406549 C102.646553,33.6663021 102.955477,33.8660658 103.209088,34.1403845 C103.462261,34.4142646 103.655968,34.7670854 103.789769,35.198189 C103.923352,35.6295119 103.990471,36.1503008 103.990471,36.7614329 L103.990471,42.7916203 L102.974061,42.7916203 L102.974061,36.752881 C102.974061,36.2730973 102.922901,35.87357 102.820364,35.5536412 C102.718045,35.2339316 102.572656,34.976936 102.384853,34.7826543 C102.19705,34.5885919 101.967707,34.4502265 101.697481,34.3673388 C101.426817,34.2846704 101.126419,34.2430073 100.796507,34.2430073 C100.432051,34.2430073 100.101701,34.3046249 99.805676,34.4272021 C99.5096511,34.550218 99.2477324,34.7142391 99.01992,34.919704 C98.7923263,35.1253882 98.595778,35.3608944 98.4307124,35.626442 C98.2654281,35.8919895 98.1346875,36.1647732 98.0378344,36.4443547 L98.0378344,42.7916203 L97.0216425,42.7916203 L97.0216425,33.5235511 L97.9952016,33.5235511 Z" id="Fill-33"></path>
                        <path d="M108.599606,38.2517663 C108.599606,38.7944832 108.653607,39.2981683 108.761829,39.7636988 C108.869832,40.2292292 109.035116,40.6329229 109.257244,40.9756568 C109.479154,41.3181714 109.759656,41.5867889 110.098314,41.7808513 C110.436971,41.9749137 110.839906,42.0720545 111.3069,42.0720545 C111.654084,42.0720545 111.968693,42.0306107 112.250507,41.947723 C112.532321,41.8652739 112.782871,41.7494943 113.002156,41.6008228 C113.221224,41.4525898 113.412088,41.2754119 113.574311,41.069947 C113.736534,40.8642628 113.87449,40.6414748 113.988396,40.4018022 L113.988396,36.050419 C113.886077,35.8164477 113.760584,35.590809 113.61279,35.3737223 C113.464559,35.1568548 113.28244,34.9641081 113.066215,34.7954821 C112.849553,34.6272947 112.599221,34.4928764 112.314565,34.3928849 C112.029691,34.2931127 111.699778,34.243117 111.323953,34.243117 C110.851275,34.243117 110.444405,34.3415735 110.102686,34.5384865 C109.760968,34.7356188 109.479154,35.0053327 109.257244,35.3480666 C109.035116,35.6905812 108.869832,36.0962484 108.761829,36.5644102 C108.653607,37.032572 108.599606,37.5351607 108.599606,38.0719571 L108.599606,38.2517663 Z M107.566142,38.0719571 C107.566142,37.3522816 107.648565,36.7029949 107.81385,36.1232198 C107.978915,35.5436639 108.215254,35.0483114 108.522648,34.6371623 C108.83026,34.2260132 109.204555,33.9089349 109.64575,33.6863662 C110.086945,33.4635782 110.583672,33.3521842 111.13615,33.3521842 C111.790728,33.3521842 112.353044,33.4837519 112.822661,33.7462295 C113.292497,34.0089264 113.681002,34.3716148 113.988396,34.8340753 L113.988396,29.6347381 L115.004807,29.6347381 L115.004807,42.7915107 L114.048301,42.7915107 L114.005668,41.5580633 C113.698055,41.997938 113.306489,42.3417683 112.831188,42.5902121 C112.355886,42.8386558 111.785044,42.962768 111.118878,42.962768 C110.572303,42.962768 110.079949,42.8472077 109.641596,42.6158678 C109.203024,42.3847471 108.83026,42.0621869 108.522648,41.6479679 C108.215254,41.2341874 107.978915,40.7388349 107.81385,40.1619104 C107.648565,39.5852052 107.566142,38.9486367 107.566142,38.2517663 L107.566142,38.0719571 Z" id="Fill-34"></path>
                        <path d="M123.514583,17.9403627 C123.514583,17.1658673 123.356076,16.6347723 123.043873,16.3619885 C122.726641,16.0850384 122.193621,15.9446995 121.45968,15.9446995 C120.181788,15.9446995 119.530708,16.3527788 119.469711,17.1917423 C119.44741,17.65508 119.396907,18.0548266 119.319293,18.3771675 C119.240586,18.7030169 119.094104,19.0762307 118.884001,19.4871606 C118.66559,19.91344 118.306381,20.2454292 117.816212,20.4736992 C117.333696,20.69868 116.727873,20.8129247 116.015576,20.8129247 C113.614801,20.8129247 112.397251,19.5033873 112.397251,16.9207128 L112.397251,7.74386389 C112.397251,5.16118942 113.59272,3.85165199 115.949987,3.85165199 C116.550345,3.85165199 117.081835,3.93717101 117.529589,4.10535842 C117.980622,4.27508079 118.325402,4.48339636 118.554307,4.72438457 C118.780808,4.96318 118.969923,5.26205801 119.117061,5.612686 C119.264417,5.96572607 119.352525,6.24289541 119.386631,6.46020144 C119.419426,6.66851701 119.447192,6.92024992 119.469711,7.20904108 C119.489825,8.05019741 120.151399,8.45652241 121.492256,8.45652241 C122.225978,8.45652241 122.753313,8.31640278 123.058958,8.04076839 C123.361323,7.76754608 123.514583,7.23623175 123.514583,6.46085928 C123.514583,4.61956895 122.794853,3.12167039 121.375726,2.00838815 C119.947854,0.888746798 118.078131,0.321032059 115.818809,0.321032059 C113.604307,0.321032059 111.785743,0.9262436 110.41384,2.12000143 C109.046092,3.3091544 108.352598,5.20131758 108.352598,7.74386389 L108.352598,16.9207128 C108.352598,19.4634784 109.040626,21.3556416 110.397662,22.5447945 C111.758852,23.7381138 113.571731,24.3433253 115.786015,24.3433253 C118.066762,24.3433253 119.946761,23.7541212 121.374196,22.5917203 C122.794416,21.4350207 123.514583,19.8700226 123.514583,17.9403627" id="Fill-36"></path>
                    </g>
                    <path d="M66.8151653,1.27717177 C67.0466944,1.2146771 67.2231288,1.01118569 67.2362466,0.758137094 C67.2522065,0.443690228 67.0110577,0.175511347 66.6975424,0.15950394 C66.3840271,0.143277254 66.1166427,0.38514259 66.1006827,0.699808735 C66.0880022,0.945182545 66.2331725,1.16073434 66.4463366,1.25173535 L65.6170733,3.20398112 L64.2053799,1.33988572 C64.3341529,1.24186777 64.4220422,1.09166128 64.4307873,0.917114763 C64.446966,0.602667898 64.2058172,0.334489016 63.8923018,0.318481609 C63.5785679,0.302254923 63.3114021,0.544120259 63.2952235,0.858567125 C63.2799194,1.15722586 63.4974562,1.41115157 63.7875781,1.45018333 L63.4817148,3.72762067 L61.7149664,1.95167565 C61.7973899,1.85826256 61.8518287,1.73897449 61.8588249,1.60499469 C61.8747849,1.29032855 61.6336361,1.02236894 61.3201208,1.00614226 C61.0066055,0.989915571 60.7392211,1.23200019 60.7230424,1.54644705 C60.7070825,1.86089392 60.9482313,2.1290728 61.2617466,2.14508021 C61.2871077,2.14639588 61.3113756,2.14354525 61.3358621,2.14157173 L61.4714127,4.54597193 L59.287737,3.65635482 C59.305446,3.60592053 59.3187824,3.55307416 59.3216246,3.49671931 C59.3378032,3.18227245 59.0966544,2.91431285 58.7831391,2.89808616 C58.4694052,2.88185947 58.2022394,3.12372481 58.1860608,3.43839095 C58.1701008,3.75283782 58.4112496,4.02079742 58.7247649,4.03702411 C58.8218366,4.04206754 58.9130053,4.0199203 58.9949915,3.98110783 L61.7368294,9.26135923 C64.6234003,6.6161901 68.3293962,6.93261048 68.3293962,6.93261048 L66.8151653,1.27717177 Z" id="Fill-18" fill="#92BF20"></path>
                    <path d="M82.0339507,11.5226137 C82.0339507,11.5226137 82.4360111,11.391046 82.7573971,11.3173681 C83.1139825,11.2357961 83.4793131,11.608352 83.3468234,12.0444991 C83.1330033,12.7475093 82.1970486,12.59511 81.8000167,11.9909948 C81.4591726,11.4721794 81.4978701,11.6721624 82.0339507,11.5226137" id="Fill-35" fill="#FEFEFE"></path>
                    <path d="M72.1674882,11.4794157 C72.0553311,11.6438753 71.8314541,11.6861963 71.667263,11.5737059 C71.4140895,11.4011329 70.6412327,10.9777041 70.1134601,11.0928258 C69.9359326,11.131419 69.8065037,11.2272442 69.7057153,11.3938967 C69.5786913,11.6039665 69.5432733,11.7980289 69.5972748,11.9866093 C69.693472,12.3225455 70.0878804,12.6867688 70.6797116,12.9860854 C70.8572391,13.0757708 70.9287311,13.2930768 70.8390928,13.4711318 C70.7759088,13.5972175 70.6488848,13.6700183 70.5172696,13.6700183 C70.4628307,13.6700183 70.4075173,13.6575194 70.3552648,13.6312058 C69.8023497,13.3516244 69.1016408,12.8740336 68.9046552,12.1861536 C68.7938099,11.7984674 68.8559008,11.405957 69.0893975,11.0193672 C69.2914116,10.6849659 69.5933395,10.4661249 69.9623868,10.3863071 C70.8858796,10.1856664 71.95498,10.8956935 72.073696,10.9772655 C72.2378871,11.0899752 72.279864,11.3147367 72.1674882,11.4794157 M82.0340382,11.5226137 C82.0340382,11.5226137 82.4360986,11.391046 82.7572659,11.3173681 C83.11407,11.2357961 83.4794006,11.608352 83.3466922,12.0444991 C83.1330908,12.7475093 82.1971361,12.59511 81.8001041,11.9909948 C81.4592601,11.4721794 81.4977389,11.6723817 82.0340382,11.5226137 M86.847176,44.8026701 C86.192598,42.5765441 82.4981895,39.9197532 81.9677933,39.6824927 C80.0287645,38.8152421 76.8365489,40.5745219 76.8365489,40.5745219 C77.375909,36.0637224 75.8920677,31.8700011 75.6786848,28.8680642 C75.2884304,23.3821286 79.0053578,19.2103353 80.7578953,18.8173863 C82.2791223,18.4764066 83.1971494,18.089159 83.7316995,17.6188043 C84.0189792,17.365975 84.2496338,17.0035059 84.4341575,16.5818314 C83.9728483,16.6555093 83.5456455,16.6873048 83.1560469,16.6873048 C81.2727688,16.6873048 80.239961,15.9713571 80.1853035,15.9323254 C80.0230801,15.8169843 79.9850385,15.5913457 80.1002565,15.4286403 C80.2150372,15.2665927 80.4389142,15.2282188 80.600919,15.3422441 C80.6170976,15.3534274 82.082574,16.3406239 84.7083194,15.7954949 C85.069496,14.467538 85.0863305,12.8580262 84.8771017,11.900871 C84.5358204,10.3380656 83.475028,9.17347199 80.6435518,9.89402457 C79.9045827,10.0819471 74.0986464,7.33832149 70.7457378,6.43094274 C70.7848726,6.15925539 70.8032375,5.87550766 70.7931805,5.5770682 C70.714911,3.26849316 69.5644804,2.42624044 69.3198335,2.56986854 C69.027088,2.74200298 69.5520184,3.38997403 69.4507928,4.50369483 C69.3924186,5.14596462 69.2763261,5.63144953 69.070814,6.05992175 C68.9256437,6.03426605 68.7795989,6.01146097 68.6254648,5.99282221 C65.1689257,5.57421757 63.3197538,7.16684489 62.1822223,8.16347042 C61.380725,7.83257758 60.8693496,7.37537974 60.3065962,6.46383467 C59.7197934,5.51303857 59.9003818,4.69797651 59.561724,4.67539072 C59.2788169,4.6563134 58.625332,5.92572267 59.5844615,8.02576286 C59.8833286,8.68009302 60.2853891,9.19342643 60.74801,9.59448872 C60.2462543,10.3588972 60.0809701,11.1169466 60.0398677,11.2357961 C59.9957044,11.3640746 59.6120089,11.4127547 59.4779887,11.4401646 C57.7658978,11.7912312 54.3524288,13.1718152 54.5072188,14.193 C54.8941937,17.0607379 59.6052314,17.0510896 59.6684154,17.3795704 C59.809869,18.1165689 59.4895761,21.347653 55.9466782,24.0500541 C52.6289691,26.5809786 47.0584972,28.2909204 39.3176861,30.0032744 C22.5131341,33.7202819 13.0405553,29.5066062 11.8105434,28.4073579 C11.4668571,28.1003665 10.2528051,27.5993128 11.2821148,24.1820604 C13.6094304,16.4559649 25.5109876,18.2957203 30.0871306,19.2287547 C30.1546873,20.347519 30.9870114,21.8726082 32.8501756,21.9989132 C34.9953724,22.1442956 36.2070195,21.7059557 37.2028788,23.6856115 C37.8482743,24.9683968 38.4208661,17.6251634 33.4498775,17.1684042 C32.2078409,17.0699476 31.3339771,17.2591859 30.7865277,17.6552047 C27.0505796,15.7658922 15.1995258,13.3343013 9.27946472,21.3428288 C6.89814757,24.5640453 7.55972172,28.0826049 7.97336954,28.9943692 C8.38679873,29.9061336 3.47811965,32.6616003 4.75142033,40.9488321 C6.02231609,49.2209336 11.3492342,56.3387476 3.97222328,57.5191294 C-1.80244894,58.4431734 1.04651761,62.3816532 2.59070078,65.4316124 C3.48358539,67.1946199 6.0341221,70.1073101 4.70200997,70.2294488 C3.36989783,70.3518068 1.31127845,69.8707075 1.1289411,70.8903574 C0.946385109,71.9102265 0.386692499,74.4981637 0.345808703,74.8871656 C0.227311284,75.5719756 0.396093586,79.4372161 6.43399624,74.973781 C11.0958421,71.5203475 10.3083371,69.8406662 8.15680005,63.5504132 C8.57175965,63.8247319 12.1999233,64.6582135 15.9179438,63.9905072 C15.9179438,63.9905072 16.9785175,64.8880184 17.0386408,65.2366729 C17.0908933,65.5394979 17.0056277,66.3394297 16.3722568,66.6525609 C15.7388859,66.9656921 13.6925098,66.3802157 13.7454182,67.64809 C13.8700373,70.6355545 13.5803526,72.331024 14.6802798,72.622885 C16.6650022,73.1463053 19.7315056,70.0592879 20.4584501,69.128227 C21.454528,67.8524586 21.5927021,67.4895509 21.7562373,66.0306841 C21.7212565,63.3982332 21.0441596,62.3371395 20.7243041,62.0062467 C21.9812075,61.4815107 22.7658703,60.1943398 23.5341359,58.1489002 C24.1884952,58.9749263 22.912571,60.9692737 23.2566945,61.5058507 C23.6869582,62.1766269 24.3395685,60.9131381 24.8850502,60.010145 C25.4816912,59.0227292 25.923105,59.5748751 25.2663408,61.4264715 C24.9648501,62.4325261 25.784275,62.7932409 26.2650423,61.7051758 C26.5427023,61.0771592 26.5829302,60.1156184 27.1612063,60.0987339 C27.4753775,60.0895242 27.6373823,60.2265739 27.2991618,61.7792923 C27.1813203,62.3211321 27.1692956,62.6930302 27.4852159,62.7886361 C27.8776566,62.9072663 28.2018848,62.4476564 28.5763978,61.0949209 C28.8455313,60.1235125 29.6730455,60.3563874 29.3009374,61.723376 C28.8431263,63.4050309 29.8663144,63.3638063 30.1391645,62.4252899 C30.1763316,62.2974499 30.7119749,60.1592551 30.8505863,60.0763674 C32.2224891,59.2549462 33.1094707,58.5302273 33.50213,57.9085698 C35.6381444,58.770777 37.0194483,59.3580076 40.8266698,59.3711644 C48.1512096,59.3968201 52.1709394,57.2818689 54.6709726,55.7502013 C58.0361244,55.9300105 59.4841104,56.1924881 61.6190316,56.286559 C65.9739211,56.5060579 73.1261805,53.3517216 73.5577559,56.9251011 C73.6497991,57.6877553 71.8450091,61.6874142 71.5533568,62.1117201 C71.2617045,62.536026 69.1709465,62.5511563 68.4562453,62.6829433 C67.2155204,62.8322727 65.9505277,67.6483093 66.4992888,68.2408026 C67.0954926,68.8846074 70.1156464,69.0462164 73.1661897,66.8779803 C76.2165145,64.7097442 78.6231927,57.5447851 78.5071002,56.3826035 C78.3910077,55.2204219 77.3595117,51.875751 75.9167728,50.3144807 C74.8448303,49.1547112 71.5516077,50.1750189 70.6346738,49.5932703 C71.4473213,49.2935151 72.1620225,48.9338967 72.7877413,48.522309 L72.7724373,48.5490611 C76.2221988,48.520774 79.5720466,45.4212577 79.5720466,45.4212577 C79.5720466,45.4212577 81.9981828,46.3468366 82.0998458,46.6663269 C82.2017273,46.9855979 83.3847338,51.8189576 82.2909283,51.8972404 C81.1969042,51.9755232 80.6805003,52.0573145 80.3986863,52.3833832 C80.1168723,52.7094519 79.5805731,57.3741856 80.5482292,58.0432075 C81.2524362,58.5300081 85.3532777,56.7097686 85.7435321,56.2453345 C86.8165678,54.9682504 87.5015353,47.0285767 86.847176,44.8026701" id="Fill-37" fill="#473029"></path>
                </g>
            </g>
        </g>
    </g>
</svg>